<?xml version="1.0" encoding="UTF-8"?>
<svg version="1.1" viewBox="0 0 2048 764" width="1356" height="506" xmlns="http://www.w3.org/2000/svg">
<path transform="translate(181,34)" d="m0 0h26l22 4 16 5 27 13 16 12 15 14 8 9 10 15 9 17 8 25 3 15 1 213h41l1-8 16-50 9-26 5-7 7-3 11 1 8 7 5 15 20 79 1 2 8-52 8-53 9-66 10-68 3-14 4-6 7-4h9l6 3 5 6 3 9 17 131 22 169 8 61 1 2 10-64 7-39 4-16 6-7 2-1h1346l6 4 4 5v15l-6 7-6 3-18 1-1303 1-5 27-20 124-12 73-4 7-5 4-3 1h-11l-6-4-5-6-3-15-10-77-17-133-10-79-8-57-23 160-7 46-4 8-7 6h-12l-8-5-4-6-7-25-18-73-5-19v-4h-2l-2 9-7 21-5 9-6 5-2 1-32 1h-27v205l-4 20-7 19-8 15-9 13-12 14-10 10-15 11-18 10-17 7-15 4-21 3h-21l-26-4-17-5-25-12-13-9-12-11-8-7-10-12-11-18-8-17-6-20-2-9-1-96v-201l1-161 4-19 8-20 9-17 10-14 12-13 11-11 14-10 21-11 24-8 14-3z" fill="#D44F4F"/>
<path transform="translate(181,34)" d="m0 0h26l22 4 16 5 27 13 16 12 15 14 8 9 10 15 9 17 8 25 3 15v213h-296v-54l1-161 4-19 8-20 9-17 10-14 12-13 11-11 14-10 21-11 24-8 14-3z" fill="#26486D"/>
<path transform="translate(45,411)" d="m0 0h203l93 1v205l-4 20-7 19-8 15-9 13-12 14-10 10-15 11-18 10-17 7-15 4-21 3h-21l-26-4-17-5-25-12-13-9-12-11-8-7-10-12-11-18-8-17-6-20-2-9-1-96z" fill="#26486D"/>
<path transform="translate(894,172)" d="m0 0h28l15 5 14 9 11 11 8 13 5 12 4 16 1 5v27l-4 17-5 13-7 11-9 10-9 8-14 7-15 4h-20l-15-4-14-7-13-12-8-11-7-14-5-19-1-12v-10l2-17 5-17 6-12 7-9 7-8 13-9 12-5z" fill="#26486D"/>
<path transform="translate(1836,175)" d="m0 0h76l16 5 13 7 10 9 9 13 5 11 3 9 2 10 1 11v12l-2 15-4 15-6 12-8 11-7 7-11 7-12 5-15 3h-70z" fill="#26486D"/>
<path transform="translate(1179,462)" d="m0 0h87l13 4 12 7 8 8 6 10 3 11 1 8v12l-5 19-6 9-7 7-8 5h-2l11 18 11 17 9 15v1h-39l-10-15-12-20-4-6-33-2v43l-2 1-33-1-1-17v-84z" fill="#26486D"/>
<path transform="translate(1331,462)" d="m0 0h32l15 27 13 23 14 26 7 12 2 1 2-6 11-19 13-24 13-22 10-17 1-1h30v151h-33v-85h-2l-2 6-10 19-16 27-10 16-4 3h-12l-8-11-15-26-15-27-1 1-2 77h-33z" fill="#26486D"/>
<path transform="translate(710,462)" d="m0 0h89l12 4 11 7 9 9 7 14 3 13v13l-3 14-6 12-9 10-11 7-13 5-21 3-32 1-1 39h-35z" fill="#26486D"/>
<path transform="translate(1684,175)" d="m0 0h29l29 44 10 15 15 23 7 11v2h2v-95h32v162h-28l-11-15-12-19-22-33-10-16-7-10-1 87-1 6h-32z" fill="#26486D"/>
<path transform="translate(1064,462)" d="m0 0h37l8 16 15 35 18 41 13 30 11 26v3h-37l-10-21-3-8-67-1-3 11-7 18-1 1h-35l1-8 15-37 16-39 19-45 9-21z" fill="#26486D"/>
<path transform="translate(1567,462)" d="m0 0h37l8 15 57 133v3h-35l-10-19-3-8v-3l-69 1-3 9-8 19-1 1h-34l2-11 18-43 13-31 14-34 9-21 4-10z" fill="#26486D"/>
<path transform="translate(1579,175)" d="m0 0h34l4 10 17 47 13 36 19 53 5 14v2h-34l-5-12-6-19v-2h-61l-2 9-8 24h-33l1-7 20-55 19-54 9-25 7-20z" fill="#26486D"/>
<path transform="translate(863,462)" d="m0 0h35v60l39-1h16v-19l1-40h36v151l-1 1-35-1v-60l-55 1-1 59-2 1-32-1-1-37z" fill="#26486D"/>
<path transform="translate(1268,175)" d="m0 0h32v63h59v-63h32l-1 162h-31v-66l-59-1v67h-32z" fill="#26486D"/>
<path transform="translate(1e3 175)" d="m0 0h32l1 100 2 12 4 9 5 6 9 4h14l8-3 7-8 3-7 2-10 1-17v-86h33l-1 110-4 17-8 16-9 10-10 6-10 4-9 2h-19l-16-4-10-5-10-9-7-11-5-13-3-14-1-16v-73z" fill="#26486D"/>
<path transform="translate(1737,459)" d="m0 0h37l15 5 15 8 12 11 1 4-11 11-8 7-4 2-10-8-10-5-12-2h-13l-13 2-12 8-7 9-4 9-1 4v26l4 11 7 10 6 5 14 6 5 1h18l12-4 9-6 7-6 5 2 8 7 7 8 3 3-1 5-10 10-14 8-11 4-9 2-10 1h-10l-16-2-13-3-16-8-9-7-11-11-8-14-6-19v-24l2-12 5-15 7-12 11-12 12-9 16-7z" fill="#26486D"/>
<path transform="translate(755,172)" d="m0 0h29l14 4 16 8 2 4-7 21-3 7-11-6-14-5-5-1h-14l-11 4-4 5-1 2v11l3 5 8 4 33 10 14 7 9 8 6 12 2 7v21l-4 13-6 10-9 8-10 5-15 4h-24l-17-4-12-5-10-6-5-4 3-10 8-19 5 2 11 7 13 5 10 2h12l10-3 6-5 1-3v-9l-4-6-12-6-25-8-12-5-9-6-7-7-5-10-3-14 1-13 4-13 6-10 7-7 12-7z" fill="#26486D"/>
<path transform="translate(1819,462)" d="m0 0h39l7 11 16 28 13 21v2l5-5 9-15 19-32 6-10h37l-2 6-10 18-17 28-11 19-15 25-2 55-1 1h-33l-2-1-1-35-1-19-8-13-12-21-14-24-16-27-6-10z" fill="#26486D"/>
<path transform="translate(1135,175)" d="m0 0h117v31h-42v131h-32v-131h-43z" fill="#26486D"/>
<path transform="translate(1420,175)" d="m0 0h33v131h65v31h-98z" fill="#26486D"/>
<path transform="translate(261,546)" d="m0 0 9 1 5 4 2 3v45l-3 16-5 15-6 10-12 14-10 8-16 8-12 4-9 1-6-4-4-5v-9l3-5 7-4 16-5 11-7 8-9 6-12 4-17 1-8 1-33 5-8z" fill="#FEFEFE"/>
<path transform="translate(176,96)" d="m0 0 10 1 5 5v9l-3 5-9 4-15 6-11 7-8 9-8 14-3 9-2 13-1 41-1 12-4 6-3 2h-9l-6-8v-63l5-19 8-15 13-16 13-10 11-7 12-4z" fill="#FEFEFE"/>
</svg>
